#!OML:ASF E:\acrobat2\Project_11_07_03\Capture day 1\Session 1\Acrobat.ASF
:FULLY-SPECIFIED
:DEGREES
245
root 8.5639 17.9643 -27.9291 35.3654 -87.0136 -29.7179
lowerback -6.13236 1.45862 2.66006
upperback -4.40899 1.7067 -0.118679
thorax -1.02417 0.747845 -1.52358
lowerneck -1.36926 3.37121 0.699091
upperneck 2.79849 4.4275 1.63188
head 1.05993 2.23801 0.442262
rclavicle -7.01958e-016 -3.8763e-015
rhumerus -6.15508 -25.3018 -3.47313
rradius 20.6113
rwrist 16.2526
rhand -5.65601 -45.8037
rfingers 7.12502
rthumb 20.163 -74.7773
lclavicle -7.01958e-016 -3.8763e-015
lhumerus 2.70443 9.2453 -1.08624
lradius 21.3816
lwrist 12.6015
lhand -9.3989 -4.58605
lfingers 7.12502
lthumb 16.5624 24.7272
rfemur 6.43741 14.7528 13.6336
rtibia -1.95274
rfoot -25.0925 -28.5216
rtoes 1.94939
lfemur 6.01272 -7.97265 -3.82613
ltibia -2.44897
lfoot -27.0301 6.2649
ltoes 36.8144
246
root 8.56664 17.9644 -27.9327 34.479 -87.0857 -28.8154
lowerback -6.10254 1.45925 2.70289
upperback -4.41879 1.70656 -0.201729
thorax -1.04732 0.745414 -1.6338
lowerneck -1.27327 3.35417 0.870468
upperneck 2.7031 4.40509 1.56315
head 1.01912 2.22654 0.389662
rclavicle -7.8023e-015 2.98177e-015
rhumerus -6.15709 -25.4822 -3.64024
rradius 20.576
rwrist 16.2895
rhand -5.65117 -45.5747
rfingers 7.12502
rthumb 20.1677 -74.5478
lclavicle -7.8023e-015 2.98177e-015
lhumerus 2.86503 9.14142 -1.20981
lradius 21.2518
lwrist 12.5461
lhand -9.56984 -4.56239
lfingers 7.12502
lthumb 16.3978 24.7645
rfemur 6.35296 14.5353 13.4699
rtibia -1.90459
rfoot -24.757 -28.3495
rtoes 1.75428
lfemur 5.98287 -7.77014 -3.88427
ltibia -2.42773
lfoot -26.7886 6.34248
ltoes 36.4674
247
root 8.56998 17.9633 -27.933 33.2404 -87.1881 -27.5745
lowerback -5.98023 1.48899 2.84979
upperback -4.47474 1.74302 -0.344193
thorax -1.1632 0.755993 -1.8644
lowerneck -1.18153 3.36848 1.00484
upperneck 2.64466 4.42252 1.57766
head 0.987861 2.23575 0.369676
rclavicle -3.54085e-015 5.06901e-015
rhumerus -6.26519 -25.9503 -3.80903
rradius 20.5241
rwrist 16.6966
rhand -5.70521 -45.4124
rfingers 7.12502
rthumb 20.1157 -74.391
lclavicle -3.54085e-015 5.06901e-015
lhumerus 3.08648 9.3147 -1.28064
lradius 21.1853
lwrist 12.2472
lhand -9.56042 -4.54053
lfingers 7.12502
lthumb 16.4069 24.7856
rfemur 6.3034 14.4988 13.3016
rtibia -1.8471
rfoot -24.8738 -28.1157
rtoes 2.46993
lfemur 5.97384 -7.61627 -4.00232
ltibia -2.4051
lfoot -26.6175 6.36508
ltoes 36.3285
248
root 8.57316 17.963 -27.9335 33.5311 -87.2516 -27.8602
lowerback -5.91865 1.48942 3.01526
upperback -4.48501 1.73847 -0.358098
thorax -1.20358 0.749047 -1.97326
lowerneck -1.11223 3.41394 0.901292
upperneck 2.52937 4.48757 1.62086
head 0.936678 2.26675 0.397291
rclavicle -2.34814e-015 4.17448e-015
rhumerus -6.25018 -26.3529 -3.95865
rradius 20.5011
rwrist 17.0266
rhand -5.71853 -45.4271
rfingers 7.12502
rthumb 20.1029 -74.407
lclavicle -2.34814e-015 4.17448e-015
lhumerus 3.10521 9.65316 -1.26712
lradius 21.1611
lwrist 11.8321
lhand -9.36498 -4.56354
lfingers 7.12502
lthumb 16.5951 24.7469
rfemur 6.22571 14.4265 13.2317
rtibia -1.78121
rfoot -25.051 -27.9059
rtoes 2.92219
lfemur 5.97141 -7.60567 -4.02286
ltibia -2.39899
lfoot -26.7056 6.27109
ltoes 36.7932
249
root 8.57703 17.9644 -27.937 34.7938 -87.2384 -29.1486
lowerback -5.88946 1.46005 3.11079
upperback -4.42617 1.69778 -0.261777
thorax -1.16162 0.730015 -1.9296
lowerneck -1.09592 3.47015 0.750416
upperneck 2.34249 4.56971 1.62335
head 0.872022 2.30542 0.42034
rclavicle 9.31803e-015 -3.27995e-015
rhumerus -6.16992 -26.3443 -4.01881
rradius 20.5622
rwrist 16.7661
rhand -5.76655 -45.5012
rfingers 7.12502
rthumb 20.0568 -74.486
lclavicle 9.31803e-015 -3.27995e-015
lhumerus 3.02215 10.2167 -1.11702
lradius 21.1284
lwrist 11.2689
lhand -9.17778 -4.63465
lfingers 7.12502
lthumb 16.7753 24.6606
rfemur 6.21276 14.4757 13.3293
rtibia -1.75053
rfoot -25.1666 -27.9322
rtoes 3.30171
lfemur 5.93995 -7.36595 -3.895
ltibia -2.32863
lfoot -26.5367 6.25322
ltoes 36.603
250
root 8.58098 17.9658 -27.9409 34.9924 -87.2229 -29.3959
lowerback -5.82073 1.44835 3.11056
upperback -4.36664 1.68654 -0.158553
thorax -1.14178 0.727774 -1.82463
lowerneck -1.10637 3.47496 0.667031
upperneck 2.18571 4.58234 1.55905
head 0.824674 2.30968 0.412374
rclavicle 3.03923e-014 -8.82107e-015
rhumerus -6.18416 -26.1965 -3.93623
rradius 20.654
rwrist 16.3809
rhand -5.7847 -45.5611
rfingers 7.12502
rthumb 20.0393 -74.5477
lclavicle 3.03923e-014 -8.82107e-015
lhumerus 3.01378 10.5743 -0.942857
lradius 21.0864
lwrist 10.9287
lhand -9.11213 -4.74165
lfingers 7.12502
lthumb 16.8385 24.5483
rfemur 6.25717 14.5567 13.3959
rtibia -1.74818
rfoot -25.0457 -28.066
rtoes 3.25946
lfemur 5.95005 -7.28615 -3.8392
ltibia -2.29315
lfoot -26.4779 6.20271
ltoes 36.6929
251
root 8.58549 17.967 -27.9452 35.0661 -87.1963 -29.4763
lowerback -5.76748 1.43248 3.10835
upperback -4.34578 1.66823 -0.0453681
thorax -1.15404 0.720468 -1.70884
lowerneck -0.975847 3.4262 0.623708
upperneck 1.91791 4.52776 1.39404
head 0.723022 2.27867 0.362218
rclavicle -7.14615e-015 -7.62836e-015
rhumerus -6.13544 -26.3696 -3.88749
rradius 20.6462
rwrist 16.429
rhand -5.69817 -45.489
rfingers 7.12502
rthumb 20.1225 -74.4669
lclavicle -7.14615e-015 -7.62836e-015
lhumerus 2.98025 10.462 -0.891782
lradius 21.0959
lwrist 11.0999
lhand -9.25335 -4.8448
lfingers 7.12502
lthumb 16.7026 24.4566
rfemur 6.25934 14.6573 13.4601
rtibia -1.74317
rfoot -24.9447 -28.2194
rtoes 2.61153
lfemur 5.94172 -7.48109 -3.80355
ltibia -2.29702
lfoot -26.6711 5.93261
ltoes 37.675
252
root 8.59124 17.9681 -27.9514 36.617 -87.1094 -31.016
lowerback -5.68842 1.40739 3.23397
upperback -4.35826 1.63273 0.0663189
thorax -1.21284 0.700073 -1.66799
lowerneck -0.823759 3.40232 0.574907
upperneck 1.67914 4.50444 1.2631
head 0.626164 2.26396 0.323818
rclavicle 1.56512e-014 1.76421e-015
rhumerus -6.06886 -26.7535 -3.91842
rradius 20.609
rwrist 16.6927
rhand -5.65579 -45.4518
rfingers 7.12502
rthumb 20.1632 -74.4254
lclavicle 1.56512e-014 1.76421e-015
lhumerus 2.89208 9.93161 -0.97869
lradius 21.179
lwrist 11.6878
lhand -9.45251 -4.88182
lfingers 7.12502
lthumb 16.5108 24.4357
rfemur 6.24497 14.7759 13.6587
rtibia -1.73938
rfoot -25.0884 -28.3409
rtoes 2.49569
lfemur 5.83455 -7.25683 -3.57576
ltibia -2.18799
lfoot -26.431 5.63457
ltoes 38.2446
253
root 8.59629 17.9689 -27.9552 37.1083 -87.0345 -31.5141
lowerback -5.59627 1.40036 3.4213
upperback -4.35575 1.62004 0.0880391
thorax -1.25834 0.689328 -1.75314
lowerneck -0.787858 3.38658 0.612714
upperneck 1.55272 4.48721 1.13677
head 0.585155 2.25397 0.277046
rclavicle 1.02654e-014 3.27995e-015
rhumerus -6.13802 -26.9727 -3.93439
rradius 20.5864
rwrist 16.7459
rhand -5.61076 -45.46
rfingers 7.12502
rthumb 20.2065 -74.429
lclavicle 1.02654e-014 3.27995e-015
lhumerus 2.85648 9.09353 -1.16374
lradius 21.2814
lwrist 12.4866
lhand -9.65436 -4.96348
lfingers 7.12502
lthumb 16.3165 24.3701
rfemur 6.25939 14.7862 13.767
rtibia -1.7536
rfoot -25.1907 -28.3767
rtoes 3.03478
lfemur 5.72928 -6.97674 -3.42921
ltibia -2.04928
lfoot -26.2287 5.34243
ltoes 38.8073
254
root 8.59994 17.9692 -27.9576 35.382 -87.0549 -29.7839
lowerback -5.55476 1.36842 3.43866
upperback -4.33834 1.57914 0.0891148
thorax -1.26531 0.668985 -1.76438
lowerneck -0.742966 3.38639 0.692701
upperneck 1.39295 4.49144 0.940385
head 0.53503 2.25439 0.202116
rclavicle 1.20513e-015 5.76476e-015
rhumerus -6.11601 -26.656 -3.97288
rradius 20.559
rwrist 16.2534
rhand -5.64644 -45.4788
rfingers 7.12502
rthumb 20.1722 -74.4514
lclavicle 1.20513e-015 5.76476e-015
lhumerus 2.88276 9.20472 -1.12955
lradius 21.2593
lwrist 12.269
lhand -9.66472 -4.91788
lfingers 7.12502
lthumb 16.3065 24.4165
rfemur 6.25035 14.6463 13.6428
rtibia -1.76267
rfoot -25.0784 -28.3185
rtoes 2.97031
lfemur 5.66775 -6.91619 -3.51294
ltibia -1.97703
lfoot -26.226 5.23986
ltoes 39.0229
255
root 8.60364 17.9689 -27.9626 33.4493 -87.0894 -27.8092
lowerback -5.55741 1.33519 3.37767
upperback -4.33418 1.53735 0.0895017
thorax -1.26319 0.649609 -1.7317
lowerneck -0.703475 3.4097 0.700356
upperneck 1.2717 4.52507 0.879181
head 0.492995 2.27024 0.18037
rclavicle 9.97029e-015 -1.19271e-014
rhumerus -6.09921 -26.2966 -4.01462
rradius 20.5447
rwrist 15.7099
rhand -5.79336 -45.5785
rfingers 7.12502
rthumb 20.031 -74.566
lclavicle 9.97029e-015 -1.19271e-014
lhumerus 3.00578 9.94288 -0.937701
lradius 21.197
lwrist 11.5772
lhand -9.61672 -4.67697
lfingers 7.12502
lthumb 16.3527 24.6536
rfemur 6.18267 14.4351 13.4793
rtibia -1.75375
rfoot -24.9003 -28.2054
rtoes 2.36545
lfemur 5.61057 -7.13157 -3.676
ltibia -1.97171
lfoot -26.3743 5.40394
ltoes 38.8411
256
root 8.60738 17.9688 -27.9684 31.966 -87.0933 -26.3042
lowerback -5.54715 1.34491 3.36525
upperback -4.31928 1.55165 0.0660974
thorax -1.25236 0.657455 -1.7482
lowerneck -0.749406 3.42085 0.715039
upperneck 1.27932 4.53933 0.86978
head 0.50342 2.27753 0.176303
rclavicle 1.43249e-014 -1.98785e-016
rhumerus -6.23869 -26.4288 -3.98064
rradius 20.5351
rwrist 15.6421
rhand -5.79694 -45.5504
rfingers 7.12502
rthumb 20.0276 -74.5382
lclavicle 1.43249e-014 -1.98785e-016
lhumerus 3.17702 9.95575 -0.909584
lradius 21.2308
lwrist 11.701
lhand -9.66337 -4.55691
lfingers 7.12502
lthumb 16.3078 24.7774
rfemur 6.16052 14.416 13.415
rtibia -1.75761
rfoot -24.8397 -28.2443
rtoes 2.07709
lfemur 5.62201 -7.76093 -3.89085
ltibia -2.04493
lfoot -26.9389 5.56573
ltoes 39.1036
257
root 8.60769 17.9697 -27.9719 31.4094 -87.1402 -25.7786
lowerback -5.52638 1.35144 3.35659
upperback -4.27688 1.56225 0.127513
thorax -1.22131 0.665315 -1.67963
lowerneck -0.787064 3.43547 0.841522
upperneck 1.31195 4.56159 0.535783
head 0.530465 2.28752 0.0570942
rclavicle -2.10836e-014 -1.26228e-014
rhumerus -6.23923 -26.8534 -3.95426
rradius 20.5432
rwrist 15.8574
rhand -5.66891 -45.4267
rfingers 7.12502
rthumb 20.1506 -74.4016
lclavicle -2.10836e-014 -1.26228e-014
lhumerus 3.12218 9.38603 -1.02006
lradius 21.3053
lwrist 12.2943
lhand -9.70285 -4.66195
lfingers 7.12502
lthumb 16.2698 24.6754
rfemur 6.20044 14.4847 13.3842
rtibia -1.78467
rfoot -24.8047 -28.2753
rtoes 1.96214
lfemur 5.70151 -8.11259 -4.03059
ltibia -2.10122
lfoot -27.3591 5.56701
ltoes 39.3627
258
root 8.60546 17.9709 -27.9727 33.078 -87.2041 -27.4729
lowerback -5.525 1.35088 3.46508
upperback -4.23296 1.55724 0.247022
thorax -1.17771 0.663386 -1.61717
lowerneck -0.477044 3.41239 0.867219
upperneck 0.812595 4.54001 0.294129
head 0.333957 2.27343 -0.0313617
rclavicle -1.99157e-014 4.96962e-016
rhumerus -6.12275 -27.0248 -3.96783
rradius 20.559
rwrist 15.7938
rhand -5.5863 -45.5246
rfingers 7.12502
rthumb 20.23 -74.4911
lclavicle -1.99157e-014 4.96962e-016
lhumerus 2.92137 8.99712 -1.09134
lradius 21.3771
lwrist 12.6843
lhand -9.80133 -4.74206
lfingers 7.12502
lthumb 16.175 24.6031
rfemur 6.19508 14.4223 13.3999
rtibia -1.79185
rfoot -24.7705 -28.1199
rtoes 2.13775
lfemur 5.75787 -8.22084 -4.00437
ltibia -2.08107
lfoot -27.6285 5.48826
ltoes 39.5705
